# This file uses meters as units for non-parametric coordinates.

mtllib House4on4Units.mtl
g default
v -150.000658 -0.323980 189.881256
v 149.999998 -0.323980 189.881927
v -150.000032 -0.323980 -189.881928
v 149.999998 -0.323980 -189.881928
vt 0.000000 0.000000
vt 1.000000 0.000000
vt 0.000000 1.000000
vt 1.000000 1.000000
vn -0.000000 1.000000 0.000000
vn -0.000000 1.000000 0.000000
vn -0.000000 1.000000 0.000000
vn -0.000000 1.000000 0.000000
s off
g Car_Hafen_V08:House_4on4Units_Ground Car_Hafen_V08:House4on4
usemtl initialShadingGroup
f 1/1/1 2/2/2 4/4/3 3/3/4
g default
v -130.000023 -0.414800 -120.455047
v -150.000145 -0.414800 -120.455047
v -150.000023 -0.233160 -169.881927
v -130.000023 -0.233160 -169.881927
v -130.000023 24.261927 -120.455047
v -150.000145 24.261927 -120.455047
v -150.000023 24.443568 -169.881927
v -130.000023 24.443568 -169.881927
v -130.000023 -0.233160 169.881257
v -150.000664 -0.233160 169.881257
v -150.000267 -0.414800 -20.455047
v -130.000023 -0.414800 -20.455047
v -130.000023 24.443568 169.881257
v -150.000664 24.443568 169.881257
v -150.000267 24.261927 -20.455047
v -130.000023 24.261927 -20.455047
v 149.999992 -0.233160 -189.881927
v 149.999992 -0.233160 -169.881256
v -150.000023 -0.233160 -169.881927
v -150.000023 -0.233160 -189.881927
v 149.999992 24.443568 -189.881927
v 149.999992 24.443568 -169.881256
v -150.000023 24.443568 -169.881927
v -150.000023 24.443568 -189.881927
v 129.999992 -0.233160 -169.881256
v 150.000664 -0.233160 -169.881256
v 149.999992 -0.233160 169.881257
v 129.999992 -0.233160 169.881257
v 129.999992 24.443568 -169.881256
v 150.000664 24.443568 -169.881256
v 149.999992 24.443568 169.881257
v 129.999992 24.443568 169.881257
v 149.999992 -0.233160 169.881257
v 149.999992 -0.233160 189.881928
v -150.000023 -0.233160 189.881257
v -150.000023 -0.233160 169.881257
v 149.999992 24.443568 169.881257
v 149.999992 24.443568 189.881928
v -150.000023 24.443568 189.881257
v -150.000023 24.443568 169.881257
vt 0.375000 0.954865
vt 0.625000 0.954865
vt 0.625000 1.000000
vt 0.375000 1.000000
vt 0.375000 0.954865
vt 0.625000 0.954865
vt 0.625000 1.000000
vt 0.375000 1.000000
vt 0.375000 0.750000
vt 0.625000 0.750000
vt 0.625000 0.905451
vt 0.375000 0.905451
vt 0.375000 0.750000
vt 0.625000 0.750000
vt 0.625000 0.905451
vt 0.375000 0.905451
vt 0.375000 0.750000
vt 0.625000 0.750000
vt 0.625000 1.000000
vt 0.375000 1.000000
vt 0.375000 0.750000
vt 0.625000 0.750000
vt 0.625000 1.000000
vt 0.375000 1.000000
vt 0.375000 0.750000
vt 0.625000 0.750000
vt 0.625000 1.000000
vt 0.375000 1.000000
vt 0.625000 0.750000
vt 0.625000 1.000000
vt 0.375000 1.000000
vt 0.375000 0.750000
vt 0.375000 0.750000
vt 0.625000 0.750000
vt 0.625000 1.000000
vt 0.375000 1.000000
vt 0.375000 0.750000
vt 0.625000 0.750000
vt 0.625000 1.000000
vt 0.375000 1.000000
vn 0.000000 -0.999993 -0.003675
vn 0.000000 -0.999993 -0.003675
vn 0.000000 -0.999993 -0.003675
vn 0.000000 -0.999993 -0.003675
vn 0.000000 0.000000 1.000000
vn 0.000000 0.000000 1.000000
vn 0.000000 0.000000 1.000000
vn 0.000000 0.000000 1.000000
vn -1.000000 0.000000 -0.000002
vn -1.000000 0.000000 -0.000002
vn -1.000000 0.000000 -0.000002
vn -1.000000 0.000000 -0.000002
vn 1.000000 0.000000 0.000000
vn 1.000000 0.000000 0.000000
vn 1.000000 0.000000 0.000000
vn 1.000000 0.000000 0.000000
vn 0.000000 0.999993 0.003675
vn 0.000000 0.999993 0.003675
vn 0.000000 0.999993 0.003675
vn 0.000000 0.999993 0.003675
vn 0.000000 -1.000000 0.000954
vn 0.000000 -1.000000 0.000954
vn 0.000000 -1.000000 0.000954
vn 0.000000 -1.000000 0.000954
vn -1.000000 0.000000 -0.000002
vn -1.000000 0.000000 -0.000002
vn -1.000000 0.000000 -0.000002
vn -1.000000 0.000000 -0.000002
vn 0.000000 0.000000 -1.000000
vn 0.000000 0.000000 -1.000000
vn 0.000000 0.000000 -1.000000
vn 0.000000 0.000000 -1.000000
vn 1.000000 0.000000 0.000000
vn 1.000000 0.000000 0.000000
vn 1.000000 0.000000 0.000000
vn 1.000000 0.000000 0.000000
vn 0.000000 1.000000 -0.000954
vn 0.000000 1.000000 -0.000954
vn 0.000000 1.000000 -0.000954
vn 0.000000 1.000000 -0.000954
vn 0.000000 -1.000000 0.000000
vn 0.000000 -1.000000 0.000000
vn 0.000000 -1.000000 0.000000
vn 0.000000 -1.000000 0.000000
vn 1.000000 0.000000 0.000000
vn 1.000000 0.000000 0.000000
vn 1.000000 0.000000 0.000000
vn 1.000000 0.000000 0.000000
vn -0.000002 0.000000 1.000000
vn -0.000002 0.000000 1.000000
vn -0.000002 0.000000 1.000000
vn -0.000002 0.000000 1.000000
vn -1.000000 0.000000 0.000000
vn -1.000000 0.000000 0.000000
vn -1.000000 0.000000 0.000000
vn -1.000000 0.000000 0.000000
vn 0.000000 0.000000 -1.000000
vn 0.000000 0.000000 -1.000000
vn 0.000000 0.000000 -1.000000
vn 0.000000 0.000000 -1.000000
vn 0.000000 1.000000 0.000000
vn 0.000000 1.000000 0.000000
vn 0.000000 1.000000 0.000000
vn 0.000000 1.000000 0.000000
vn 0.000000 -1.000000 0.000000
vn 0.000000 -1.000000 0.000000
vn 0.000000 -1.000000 0.000000
vn 0.000000 -1.000000 0.000000
vn 1.000000 0.000000 0.000002
vn 1.000000 0.000000 0.000002
vn 1.000000 0.000000 0.000002
vn 1.000000 0.000000 0.000002
vn -1.000000 0.000000 0.000000
vn -1.000000 0.000000 0.000000
vn -1.000000 0.000000 0.000000
vn -1.000000 0.000000 0.000000
vn 0.000000 1.000000 0.000000
vn 0.000000 1.000000 0.000000
vn 0.000000 1.000000 0.000000
vn 0.000000 1.000000 0.000000
vn 0.000000 -1.000000 0.000000
vn 0.000000 -1.000000 0.000000
vn 0.000000 -1.000000 0.000000
vn 0.000000 -1.000000 0.000000
vn 1.000000 0.000000 0.000000
vn 1.000000 0.000000 0.000000
vn 1.000000 0.000000 0.000000
vn 1.000000 0.000000 0.000000
vn -0.000002 0.000000 1.000000
vn -0.000002 0.000000 1.000000
vn -0.000002 0.000000 1.000000
vn -0.000002 0.000000 1.000000
vn -1.000000 0.000000 0.000000
vn -1.000000 0.000000 0.000000
vn -1.000000 0.000000 0.000000
vn -1.000000 0.000000 0.000000
vn 0.000000 0.000000 -1.000000
vn 0.000000 0.000000 -1.000000
vn 0.000000 0.000000 -1.000000
vn 0.000000 0.000000 -1.000000
vn 0.000000 1.000000 0.000000
vn 0.000000 1.000000 0.000000
vn 0.000000 1.000000 0.000000
vn 0.000000 1.000000 0.000000
s off
g Car_Hafen_V08:House4on4 Car_Hafen_V08:House_4on4Units
usemtl lambert3SG
f 5/5/5 6/6/6 7/7/7 8/8/8
f 9/9/9 10/10/10 6/6/11 5/5/12
f 10/10/13 11/11/14 7/7/15 6/6/16
f 12/12/17 9/9/18 5/5/19 8/8/20
f 12/12/21 11/11/22 10/10/23 9/9/24
f 13/13/25 14/14/26 15/15/27 16/16/28
f 18/18/29 19/19/30 15/15/31 14/14/32
f 19/19/33 20/20/34 16/16/35 15/15/36
f 20/20/37 17/17/38 13/13/39 16/16/40
f 20/20/41 19/19/42 18/18/43 17/17/44
f 21/21/45 22/22/46 23/23/47 24/24/48
f 25/25/49 26/26/50 22/22/51 21/21/52
f 26/26/53 27/27/54 23/23/55 22/22/56
f 27/27/57 28/28/58 24/24/59 23/23/60
f 28/28/61 25/25/62 21/21/63 24/24/64
f 28/28/65 27/27/66 26/26/67 25/25/68
f 29/29/69 30/30/70 31/31/71 32/32/72
f 34/33/73 35/34/74 31/31/75 30/30/76
f 36/35/77 33/36/78 29/29/79 32/32/80
f 35/34/81 34/33/82 33/36/83 36/35/84
f 37/37/85 38/38/86 39/39/87 40/40/88
f 41/41/89 42/42/90 38/38/91 37/37/92
f 42/42/93 43/43/94 39/39/95 38/38/96
f 43/43/97 44/44/98 40/40/99 39/39/100
f 44/44/101 41/41/102 37/37/103 40/40/104
f 43/43/105 42/42/106 41/41/107 44/44/108
